<svg viewBox="0 0 24 24" fill="currentColor" xmlns="http://www.w3.org/2000/svg">
<path fill-rule="evenodd" clip-rule="evenodd" d="M2.4342 2.43437C2.58424 2.28428 2.78777 2.19995 3 2.19995H21C21.2122 2.19995 21.4158 2.28428 21.5658 2.43437C21.7158 2.58447 21.8001 2.78803 21.8 3.00025C21.7992 5.20658 21.0549 7.34826 19.6873 9.07962C18.4517 10.6439 16.7724 11.7908 14.8769 12.375V18.2307C14.8769 18.4982 14.7432 18.748 14.5207 18.8964L10.3668 21.6656C10.1213 21.8292 9.80571 21.8445 9.54559 21.7053C9.28546 21.5661 9.12307 21.295 9.12307 21V12.375C7.2276 11.7908 5.5483 10.6439 4.31268 9.07962C2.9451 7.34826 2.20083 5.20658 2.2 3.00025C2.19992 2.78803 2.28417 2.58447 2.4342 2.43437ZM3.83937 3.79995C3.99265 5.35971 4.58987 6.84925 5.56824 8.08786C6.71286 9.53695 8.31238 10.5581 10.1086 10.9864C10.4689 11.0723 10.7231 11.3942 10.7231 11.7646V19.5051L13.2769 17.8026V11.7646C13.2769 11.3942 13.5311 11.0723 13.8914 10.9864C15.6876 10.5581 17.2871 9.53695 18.4318 8.08786C19.4101 6.84925 20.0073 5.35971 20.1606 3.79995H3.83937Z" />
</svg>
